<?xml version="1.0" encoding="UTF-8"?><svg id="Layer_2" xmlns="http://www.w3.org/2000/svg" viewBox="0 0 246.83 353.96"><defs><style>.cls-1{fill:#eab54e;}.cls-2{fill:#fff;}.cls-3{fill:#ba18dd;}.cls-4{fill:#20aaa1;}</style></defs><g id="Layer_1-2"><g><path class="cls-2" d="M46.4,353.37h-12.63l-21.13-31.99v31.99H0v-51.86H12.63l21.13,32.14v-32.14h12.63v51.86Z"/><path class="cls-2" d="M94.2,335.78h-28.59c.2,2.56,1.02,4.52,2.47,5.87,1.45,1.36,3.24,2.03,5.36,2.03,3.15,0,5.34-1.33,6.58-3.99h13.45c-.69,2.71-1.93,5.15-3.73,7.31-1.8,2.17-4.05,3.87-6.76,5.1-2.71,1.23-5.74,1.85-9.09,1.85-4.04,0-7.64-.86-10.79-2.59-3.15-1.72-5.62-4.19-7.39-7.39-1.77-3.2-2.66-6.94-2.66-11.23s.87-8.03,2.62-11.23c1.75-3.2,4.2-5.66,7.35-7.39,3.15-1.72,6.77-2.59,10.86-2.59s7.54,.84,10.64,2.51c3.1,1.68,5.53,4.06,7.28,7.17,1.75,3.1,2.62,6.72,2.62,10.86,0,1.18-.07,2.41-.22,3.69Zm-12.71-7.02c0-2.17-.74-3.89-2.22-5.17-1.48-1.28-3.32-1.92-5.54-1.92s-3.9,.62-5.36,1.85c-1.45,1.23-2.35,2.98-2.7,5.25h15.81Z"/><path class="cls-2" d="M118.8,313.32c2.22-1.18,4.75-1.77,7.61-1.77,3.4,0,6.48,.86,9.23,2.59,2.76,1.72,4.94,4.19,6.54,7.39,1.6,3.2,2.4,6.92,2.4,11.16s-.8,7.97-2.4,11.19c-1.6,3.23-3.78,5.71-6.54,7.46-2.76,1.75-5.84,2.62-9.23,2.62-2.91,0-5.44-.58-7.61-1.74-2.17-1.16-3.87-2.7-5.1-4.62v5.76h-12.63v-54.67h12.63v19.28c1.18-1.92,2.88-3.47,5.1-4.65Zm10.31,11.93c-1.75-1.8-3.9-2.7-6.46-2.7s-4.64,.91-6.39,2.73c-1.75,1.82-2.62,4.31-2.62,7.46s.87,5.64,2.62,7.46c1.75,1.82,3.88,2.73,6.39,2.73s4.65-.92,6.43-2.77c1.77-1.85,2.66-4.35,2.66-7.5s-.87-5.63-2.62-7.42Z"/><path class="cls-2" d="M151.12,321.52c1.6-3.2,3.78-5.66,6.54-7.39,2.76-1.72,5.84-2.59,9.23-2.59,2.91,0,5.45,.59,7.65,1.77,2.19,1.18,3.88,2.73,5.06,4.65v-5.84h12.63v41.22h-12.63v-5.84c-1.23,1.92-2.94,3.47-5.13,4.65-2.19,1.18-4.74,1.77-7.65,1.77-3.35,0-6.4-.87-9.16-2.62-2.76-1.75-4.94-4.24-6.54-7.46-1.6-3.23-2.4-6.96-2.4-11.19s.8-7.95,2.4-11.16Zm25.86,3.77c-1.75-1.82-3.88-2.73-6.39-2.73s-4.64,.9-6.39,2.7c-1.75,1.8-2.62,4.27-2.62,7.42s.87,5.65,2.62,7.5c1.75,1.85,3.88,2.77,6.39,2.77s4.64-.91,6.39-2.73c1.75-1.82,2.62-4.31,2.62-7.46s-.87-5.64-2.62-7.46Z"/><path class="cls-2" d="M219.57,313.66c2.22-1.3,4.68-1.96,7.39-1.96v13.37h-3.47c-3.15,0-5.52,.68-7.09,2.03-1.58,1.36-2.36,3.73-2.36,7.13v19.13h-12.63v-41.22h12.63v6.87c1.48-2.26,3.32-4.05,5.54-5.36Z"/><path class="cls-2" d="M233.93,305.9c-1.4-1.3-2.11-2.92-2.11-4.84s.7-3.61,2.11-4.91c1.4-1.3,3.21-1.96,5.43-1.96s3.95,.65,5.36,1.96c1.4,1.31,2.11,2.94,2.11,4.91s-.7,3.53-2.11,4.84c-1.4,1.31-3.19,1.96-5.36,1.96s-4.03-.65-5.43-1.96Zm11.71,6.24v41.22h-12.63v-41.22h12.63Z"/></g><g><rect class="cls-4" x="184.45" y="68.94" width="62.38" height="20.41" rx="10.21" ry="10.21"/><rect class="cls-4" x="185.22" y="124.88" width="50.03" height="20.41" rx="10.21" ry="10.21"/><rect class="cls-4" x="32.45" y="71.4" width="134.17" height="20.41" rx="10.21" ry="10.21"/><rect class="cls-4" x="22.67" y="45.27" width="97.64" height="20.41" rx="10.21" ry="10.21"/><rect class="cls-4" x="0" y="97.52" width="45.97" height="20.41" rx="10.21" ry="10.21"/><rect class="cls-4" x="82.97" y="19.05" width="57.42" height="20.41" rx="10.21" ry="10.21"/><rect class="cls-4" x="107.98" y="97.45" width="113.77" height="20.41" rx="10.21" ry="10.21"/><path class="cls-3" d="M160.47,201.59c18.24-4.19,30.7-11.5,39.23-22.98,4.76-6.42,7.89-14.01,10.04-24.44l-24.03,.02c-1.98,8.61-7.27,15.21-15.72,19.62-9.95,5.19-20.89,6.36-31.46,7.49-.82,.09-1.65,.18-2.47,.27-3.1,.34-3.66-2.07-3.93-3.22-2.6-11.2-9.02-19.65-19.06-25.13-.79-.43-1.87-1.15-2.1-2.36-.22-1.17,.47-2.19,1.1-2.94,5.02-6.01,7.9-13.22,10-19.72h-24.94c-3.19,6.73-8.51,11.6-16.24,14.88-11.28,4.79-23.07,5.41-35.05,1.82-9.02-2.7-14.44-8.3-16.15-16.66l-23.58-.04c2.98,21.42,15.59,34.95,37.51,40.23,10.47,2.52,21.4,2.36,31.97,2.21l1.64-.02c1.11-.02,2.23-.04,3.34-.07,1.63-.04,3.28-.08,4.94-.08,3.49,0,7.02,.19,10.54,.96,8.96,1.98,13.6,7.62,13.77,16.77,.15,7.71-2.63,14.79-8.5,21.66-4.66,5.46-10.36,9.76-15.87,13.93-.85,.64-1.71,1.3-2.58,1.95l35.56-.05c5.04-5.79,8.58-11.44,10.81-17.27,1.1-2.87,3.04-3.37,4.98-3.49,7.85-.46,17.1-1.22,26.25-3.32Z"/><path class="cls-1" d="M184.13,58.51c16.31,.08,29.57-12.76,29.7-28.75C213.96,13.45,200.94,.1,184.8,0c-16.29-.1-29.72,13.03-29.73,29.08-.02,16.16,13.01,29.35,29.06,29.43Z"/></g></g></svg>